<svg xmlns="http://www.w3.org/2000/svg" version="1.1" xmlns:xlink="http://www.w3.org/1999/xlink" xmlns:svgjs="http://svgjs.dev/svgjs" width="1000" height="378" viewBox="0 0 1000 378"><g transform="matrix(1,0,0,1,-0.6060606060606233,0.27698631712311794)"><svg viewBox="0 0 396 150" data-background-color="#ffffff" preserveAspectRatio="xMidYMid meet" height="378" width="1000" xmlns="http://www.w3.org/2000/svg" xmlns:xlink="http://www.w3.org/1999/xlink"><g id="tight-bounds" transform="matrix(1,0,0,1,0.2400000000000091,-0.10991520520758513)"><svg viewBox="0 0 395.52 150.21983041041517" height="150.21983041041517" width="395.52"><g><svg viewBox="0 0 650.8630966555874 247.2" height="150.21983041041517" width="395.52"><g><svg viewBox="0 0 366.19598853868195 247.2" height="247.2" width="366.19598853868195"><g id="textblocktransform"><svg viewBox="0 0 366.19598853868195 247.2" height="247.2" width="366.19598853868195" id="textblock"><g><svg viewBox="0 0 366.19598853868195 247.2" height="247.2" width="366.19598853868195"><g transform="matrix(1,0,0,1,0,0)"><svg width="366.19598853868195" viewBox="4.6 -34.9 51.699999999999996 34.9" height="247.2" data-palette-color="#ffffff"><path d="M27.15 0L4.6 0 4.6-34.9 12.15-34.9 12.15-6.15 27.15-6.15 27.15 0ZM56.3 0L34 0 34-34.9 56.3-34.9 56.3-28.75 41.5-28.75 41.5-20.75 55.8-20.75 55.8-14.6 41.5-14.6 41.5-6.15 56.3-6.15 56.3 0Z" opacity="1" transform="matrix(1,0,0,1,0,0)" fill="#ffffff" class="wordmark-text-0" data-fill-palette-color="primary" id="text-0"></path></svg></g></svg></g></svg></g></svg></g><g transform="matrix(1,0,0,1,424.55397573868197,10.445439541547273)"><svg viewBox="0 0 226.30912091690544 226.30912091690544" height="226.30912091690544" width="226.30912091690544"><g data-palette-color="#915eff"><rect width="61.857826383954155" height="226.30912091690544" fill="#915eff" stroke="transparent" data-fill-palette-color="accent" x="0" fill-opacity="1"></rect><rect width="61.857826383954155" height="226.30912091690544" fill="#915eff" stroke="transparent" data-fill-palette-color="accent" x="75.43637363896848" fill-opacity="0.75"></rect><rect width="61.857826383954155" height="226.30912091690544" fill="#915eff" stroke="transparent" data-fill-palette-color="accent" x="150.87274727793695" fill-opacity="0.5"></rect></g></svg></g></svg></g><defs></defs></svg><rect width="395.52" height="150.21983041041517" fill="none" stroke="none" visibility="hidden"></rect></g></svg></g></svg>